<svg width="375" height="200" viewBox="0 0 375 200" fill="none" xmlns="http://www.w3.org/2000/svg">
<rect width="375" height="200" fill="#CC2228"/>
<path d="M156.211 128.174H160.097V121.39H165.399V117.668H160.097V114.54H166.881V110.818H156.211V128.174ZM143.334 128.174H147.22V121.39H152.523V117.668H147.22V114.54H154.005V110.818H143.334V128.174ZM132.104 124.716C129.272 124.716 127.066 122.312 127.066 119.512C127.066 116.713 129.272 114.309 132.104 114.309C134.904 114.309 137.143 116.713 137.143 119.512C137.143 122.312 134.936 124.716 132.104 124.716ZM132.104 128.47C137.044 128.47 141.062 124.452 141.062 119.512C141.062 114.572 137.044 110.555 132.104 110.555C127.164 110.555 123.146 114.572 123.146 119.512C123.179 124.452 127.164 128.47 132.104 128.47Z" fill="white"/>
<path d="M157.232 99.3576C155.387 99.3576 153.938 97.8097 153.938 96.0314C153.938 94.253 155.387 92.7051 157.232 92.7051C159.076 92.7051 160.459 94.253 160.459 96.0314C160.492 97.8097 159.076 99.3576 157.232 99.3576ZM157.232 105.285C162.303 105.285 166.486 101.103 166.486 96.0314C166.486 90.9268 162.303 86.7772 157.232 86.7772C152.127 86.7772 147.978 90.8938 147.978 96.0314C147.978 101.103 152.127 105.285 157.232 105.285ZM132.4 83.7803C130.523 83.7803 129.107 82.2325 129.107 80.4541C129.107 78.6757 130.523 77.1279 132.4 77.1279C134.245 77.1279 135.628 78.6757 135.628 80.4541C135.628 82.1995 134.245 83.7803 132.4 83.7803ZM130.622 104.89H137.9L159.043 71.5293H151.765L130.622 104.89ZM132.4 89.6753C137.472 89.6753 141.654 85.4928 141.654 80.4212C141.654 75.3166 137.472 71.167 132.4 71.167C127.296 71.167 123.146 75.2836 123.146 80.4212C123.146 85.4928 127.296 89.6753 132.4 89.6753ZM96.6352 116.516C91.1354 116.516 87.3481 112.597 87.3481 105.911V92.9357C87.3481 86.2503 91.1354 82.3313 96.6352 82.3313C102.069 82.3313 105.823 86.2503 105.823 92.9357V105.911C105.856 112.564 102.069 116.516 96.6352 116.516ZM96.6352 128.24C109.051 128.24 117.712 118.821 117.712 105.911V92.9357C117.712 80.0589 109.051 70.6072 96.6352 70.6072C84.1207 70.6072 75.4923 80.026 75.4923 92.9357V105.911C75.4923 118.788 84.1537 128.24 96.6352 128.24ZM51.6818 128.24C63.7023 128.24 71.5074 121.258 71.5074 109.698C71.5074 98.3696 64.9867 90.4328 53.8225 90.4328C51.0561 90.4328 47.7628 91.2232 45.5563 92.6393V83.0229H67.6543V71.5293H33.6676V105.253H44.8318C45.8527 102.75 48.6849 101.103 51.9124 101.103C56.3912 101.103 59.6187 104.627 59.6187 108.809C59.6187 113.124 56.9511 116.516 51.6818 116.516C47.0383 116.516 43.745 113.519 42.3289 109.435L31 113.848C33.3712 122.575 42.4936 128.24 51.6818 128.24Z" fill="white"/>
<path d="M112.147 58.9488C110.764 58.9488 109.677 57.7962 109.677 56.413C109.677 55.0298 110.764 53.8772 112.147 53.8772C113.53 53.8772 114.584 55.0298 114.584 56.413C114.617 57.7633 113.53 58.9488 112.147 58.9488ZM112.147 60.7601C114.551 60.7601 116.527 58.7842 116.527 56.3801C116.527 53.976 114.551 52 112.147 52C109.743 52 107.767 53.976 107.767 56.3801C107.8 58.8171 109.743 60.7601 112.147 60.7601ZM103.354 60.6284H105.264V53.976H107.437V52.1647H101.213V53.976H103.354V60.6284ZM96.833 55.0628C96.833 55.6885 96.339 56.1825 95.6803 56.1825H94.7253V53.976H95.6803C96.3719 53.976 96.833 54.437 96.833 55.0628ZM98.6772 55.0628C98.6772 53.4161 97.3929 52.1647 95.7133 52.1647H92.8481V60.6284H94.7253V57.9608H95.7133C97.3929 57.9608 98.6772 56.7094 98.6772 55.0628ZM87.6777 60.7601C89.6866 60.7601 91.1685 59.377 91.1685 57.2693V52.1647H89.2914V57.3022C89.2914 58.3231 88.6327 58.9488 87.7106 58.9488C86.7555 58.9488 86.1298 58.3231 86.1298 57.3022V52.1647H84.2526V57.2693C84.1868 59.377 85.6358 60.7601 87.6777 60.7601Z" fill="white"/>
<path d="M334.938 90.8938C338.033 90.8938 341.096 89.9716 342.776 88.0615V78.9721H334.839V82.9899H338.593V85.8221C337.77 86.4807 336.387 86.7442 334.872 86.7442C331.117 86.7442 328.845 84.2742 328.845 81.0139C328.845 77.9182 331.15 75.2836 334.608 75.2836C336.782 75.2836 338.363 76.1728 339.417 77.3254L342.446 74.3944C340.602 72.3855 338 71.134 334.608 71.134C328.68 71.134 324.531 75.58 324.531 81.0139C324.531 86.6125 328.977 90.8938 334.938 90.8938ZM322.061 90.5644V71.4304H317.747V83.2204L308.46 71.4304H304.771V90.5644H309.052V78.7415L318.372 90.5644H322.061ZM296.999 90.5644H301.28V71.4304H296.999V90.5644ZM277.206 90.5644H281.488V82.9899H289.194V90.5644H293.475V71.4304H289.194V78.9062H281.488V71.4304H277.206V90.5644ZM265.91 90.5644H270.225V75.547H275.165V71.4304H261.036V75.5141H265.91V90.5644ZM248.39 90.5644H252.704V82.5288L259.686 71.4304H254.713L250.531 78.3134L246.381 71.4304H241.408L248.39 82.4959V90.5644ZM231.726 79.0379V75.3824H234.459C235.711 75.3824 236.633 76.041 236.633 77.2266C236.633 78.3463 235.711 79.0709 234.459 79.0709H231.726V79.0379ZM227.445 90.5644H231.726V82.6605H232.418L238.774 90.5644H243.911L237.16 82.1336C239.597 81.2774 240.914 79.6966 240.914 77.1937C240.914 73.9992 238.609 71.4304 234.986 71.4304H227.445V90.5644ZM212.065 90.5644H224.184V86.4807H216.346V83.0557H222.571V78.9721H216.346V75.547H224.184V71.4304H212.065V90.5644ZM198.332 90.5644H202.185L210.023 71.4304H205.314L200.242 84.1754L195.138 71.4304H190.461L198.332 90.5644ZM176.563 90.5644H188.683V86.4807H180.845V83.0557H187.069V78.9721H180.845V75.547H188.683V71.4304H176.563V90.5644Z" fill="white"/>
<path d="M343.698 103.079H176.201V128.569H343.698V103.079Z" fill="white"/>
<path d="M321.962 121.719H329.372V119.216H324.564V117.108H328.384V114.605H324.564V112.498H329.372V109.995H321.962V121.719ZM312.84 121.719H320.315V119.216H315.474V109.995H312.84V121.719ZM303.948 116.944L305.43 113.42L306.912 116.944H303.948ZM299.238 121.719H301.972L303.026 119.249H307.867L308.921 121.719H311.654L306.615 109.995H304.244L299.238 121.719ZM294.792 121.916C297.262 121.916 298.975 120.434 298.975 118.294C299.008 116.515 297.888 115.396 296.176 114.803L295.352 114.507C294.101 114.045 293.541 113.782 293.541 113.156C293.541 112.531 294.266 112.267 294.957 112.267C295.715 112.267 296.439 112.596 296.999 113.255L298.712 111.444C297.625 110.258 296.34 109.83 294.924 109.83C292.586 109.83 290.873 111.18 290.873 113.453C290.873 115.066 291.927 116.186 293.837 116.845L294.661 117.141C295.846 117.536 296.307 117.964 296.307 118.557C296.307 119.117 295.748 119.545 294.891 119.545C294.035 119.545 293.014 119.051 292.454 118.195L290.445 119.908C291.367 121.126 292.948 121.916 294.792 121.916ZM278.227 121.719H285.637V119.216H280.829V117.108H284.649V114.605H280.829V112.498H285.637V109.995H278.227V121.719ZM266.668 121.719H269.27V116.482L274.045 121.719H277.404L271.838 115.626L276.449 109.995H273.221L269.237 114.902V109.995H266.635V121.719H266.668ZM257.776 116.944L259.258 113.42L260.74 116.944H257.776ZM253.067 121.719H255.8L256.854 119.249H261.695L262.749 121.719H265.482L260.444 109.995H258.072L253.067 121.719ZM248.225 121.719H250.86V112.531H253.89V109.995H245.261V112.498H248.258V121.719H248.225ZM234.591 121.719H237.193V116.482L241.968 121.719H245.327L239.762 115.626L244.372 109.995H241.145L237.16 114.902V109.995H234.558V121.719H234.591ZM227.577 121.916C230.014 121.916 232.055 120.632 233.043 118.722L230.738 117.47C230.079 118.656 229.026 119.381 227.577 119.381C225.666 119.381 224.151 117.767 224.151 115.857C224.151 113.947 225.666 112.333 227.577 112.333C229.058 112.333 230.079 113.09 230.738 114.243L233.043 112.992C232.022 111.049 230.014 109.797 227.577 109.797C224.217 109.797 221.517 112.531 221.517 115.857C221.517 119.183 224.217 121.916 227.577 121.916ZM214.305 119.348C212.394 119.348 210.88 117.734 210.88 115.824C210.88 113.914 212.394 112.3 214.305 112.3C216.215 112.3 217.697 113.914 217.697 115.824C217.697 117.734 216.215 119.348 214.305 119.348ZM214.305 121.916C217.631 121.916 220.364 119.183 220.364 115.857C220.364 112.531 217.631 109.797 214.305 109.797C210.945 109.797 208.245 112.531 208.245 115.857C208.245 119.183 210.945 121.916 214.305 121.916ZM202.416 121.719H205.05V112.531H208.08V109.995H199.452V112.498H202.449V121.719H202.416ZM194.479 121.916C196.949 121.916 198.661 120.434 198.661 118.294C198.694 116.515 197.575 115.396 195.862 114.803L195.039 114.507C193.787 114.045 193.228 113.782 193.228 113.156C193.228 112.531 193.952 112.267 194.644 112.267C195.401 112.267 196.126 112.596 196.685 113.255L198.398 111.444C197.311 110.258 196.027 109.83 194.611 109.83C192.272 109.83 190.56 111.18 190.56 113.453C190.56 115.066 191.614 116.186 193.524 116.845L194.347 117.141C195.533 117.536 195.994 117.964 195.994 118.557C195.994 119.117 195.434 119.545 194.578 119.545C193.722 119.545 192.701 119.051 192.141 118.195L190.132 119.908C191.054 121.126 192.635 121.916 194.479 121.916Z" fill="#CC2228"/>
</svg>
